<svg id="visual" viewBox="0 0 540 960" width="540" height="960" xmlns="http://www.w3.org/2000/svg" xmlns:xlink="http://www.w3.org/1999/xlink" version="1.1"><rect x="0" y="0" width="540" height="960" fill="#e3e3e3"></rect><defs><linearGradient id="grad1_0" x1="0%" y1="0%" x2="100%" y2="100%"><stop offset="30%" stop-color="#e64777" stop-opacity="1"></stop><stop offset="70%" stop-color="#e64777" stop-opacity="1"></stop></linearGradient></defs><defs><linearGradient id="grad1_1" x1="0%" y1="0%" x2="100%" y2="100%"><stop offset="30%" stop-color="#e64777" stop-opacity="1"></stop><stop offset="70%" stop-color="#e96385" stop-opacity="1"></stop></linearGradient></defs><defs><linearGradient id="grad1_2" x1="0%" y1="0%" x2="100%" y2="100%"><stop offset="30%" stop-color="#eb7b94" stop-opacity="1"></stop><stop offset="70%" stop-color="#e96385" stop-opacity="1"></stop></linearGradient></defs><defs><linearGradient id="grad1_3" x1="0%" y1="0%" x2="100%" y2="100%"><stop offset="30%" stop-color="#eb7b94" stop-opacity="1"></stop><stop offset="70%" stop-color="#ec91a3" stop-opacity="1"></stop></linearGradient></defs><defs><linearGradient id="grad1_4" x1="0%" y1="0%" x2="100%" y2="100%"><stop offset="30%" stop-color="#eca6b3" stop-opacity="1"></stop><stop offset="70%" stop-color="#ec91a3" stop-opacity="1"></stop></linearGradient></defs><defs><linearGradient id="grad1_5" x1="0%" y1="0%" x2="100%" y2="100%"><stop offset="30%" stop-color="#eca6b3" stop-opacity="1"></stop><stop offset="70%" stop-color="#eabbc3" stop-opacity="1"></stop></linearGradient></defs><defs><linearGradient id="grad1_6" x1="0%" y1="0%" x2="100%" y2="100%"><stop offset="30%" stop-color="#e7cfd3" stop-opacity="1"></stop><stop offset="70%" stop-color="#eabbc3" stop-opacity="1"></stop></linearGradient></defs><defs><linearGradient id="grad1_7" x1="0%" y1="0%" x2="100%" y2="100%"><stop offset="30%" stop-color="#e7cfd3" stop-opacity="1"></stop><stop offset="70%" stop-color="#e3e3e3" stop-opacity="1"></stop></linearGradient></defs><defs><linearGradient id="grad2_0" x1="0%" y1="0%" x2="100%" y2="100%"><stop offset="30%" stop-color="#e64777" stop-opacity="1"></stop><stop offset="70%" stop-color="#e64777" stop-opacity="1"></stop></linearGradient></defs><defs><linearGradient id="grad2_1" x1="0%" y1="0%" x2="100%" y2="100%"><stop offset="30%" stop-color="#e96385" stop-opacity="1"></stop><stop offset="70%" stop-color="#e64777" stop-opacity="1"></stop></linearGradient></defs><defs><linearGradient id="grad2_2" x1="0%" y1="0%" x2="100%" y2="100%"><stop offset="30%" stop-color="#e96385" stop-opacity="1"></stop><stop offset="70%" stop-color="#eb7b94" stop-opacity="1"></stop></linearGradient></defs><defs><linearGradient id="grad2_3" x1="0%" y1="0%" x2="100%" y2="100%"><stop offset="30%" stop-color="#ec91a3" stop-opacity="1"></stop><stop offset="70%" stop-color="#eb7b94" stop-opacity="1"></stop></linearGradient></defs><defs><linearGradient id="grad2_4" x1="0%" y1="0%" x2="100%" y2="100%"><stop offset="30%" stop-color="#ec91a3" stop-opacity="1"></stop><stop offset="70%" stop-color="#eca6b3" stop-opacity="1"></stop></linearGradient></defs><defs><linearGradient id="grad2_5" x1="0%" y1="0%" x2="100%" y2="100%"><stop offset="30%" stop-color="#eabbc3" stop-opacity="1"></stop><stop offset="70%" stop-color="#eca6b3" stop-opacity="1"></stop></linearGradient></defs><defs><linearGradient id="grad2_6" x1="0%" y1="0%" x2="100%" y2="100%"><stop offset="30%" stop-color="#eabbc3" stop-opacity="1"></stop><stop offset="70%" stop-color="#e7cfd3" stop-opacity="1"></stop></linearGradient></defs><defs><linearGradient id="grad2_7" x1="0%" y1="0%" x2="100%" y2="100%"><stop offset="30%" stop-color="#e3e3e3" stop-opacity="1"></stop><stop offset="70%" stop-color="#e7cfd3" stop-opacity="1"></stop></linearGradient></defs><g transform="translate(540, 0)"><path d="M0 540C-61.6 541.6 -123.2 543.3 -166.9 513.6C-210.6 483.9 -236.3 422.8 -282.7 389.1C-329.1 355.5 -396.1 349.3 -432.8 314.5C-469.6 279.6 -476 216 -488.8 158.8C-501.7 101.6 -520.8 50.8 -540 0L0 0Z" fill="#e5d9db"></path><path d="M0 472.5C-53.9 473.9 -107.8 475.4 -146 449.4C-184.2 423.4 -206.8 369.9 -247.4 340.5C-288 311.1 -346.6 305.7 -378.7 275.2C-410.9 244.6 -416.5 189 -427.7 139C-439 88.9 -455.7 44.5 -472.5 0L0 0Z" fill="#e9c5cb"></path><path d="M0 405C-46.2 406.2 -92.4 407.5 -125.2 385.2C-157.9 362.9 -177.3 317.1 -212 291.9C-246.8 266.6 -297.1 262 -324.6 235.8C-352.2 209.7 -357 162 -366.6 119.1C-376.2 76.2 -390.6 38.1 -405 0L0 0Z" fill="#ebb0bb"></path><path d="M0 337.5C-38.5 338.5 -77 339.6 -104.3 321C-131.6 302.4 -147.7 264.2 -176.7 243.2C-205.7 222.2 -247.6 218.3 -270.5 196.5C-293.5 174.7 -297.5 135 -305.5 99.3C-313.5 63.5 -325.5 31.8 -337.5 0L0 0Z" fill="#ec9bab"></path><path d="M0 270C-30.8 270.8 -61.6 271.6 -83.4 256.8C-105.3 241.9 -118.2 211.4 -141.4 194.6C-164.6 177.8 -198 174.7 -216.4 157.2C-234.8 139.8 -238 108 -244.4 79.4C-250.8 50.8 -260.4 25.4 -270 0L0 0Z" fill="#ec869c"></path><path d="M0 202.5C-23.1 203.1 -46.2 203.7 -62.6 192.6C-79 181.4 -88.6 158.5 -106 145.9C-123.4 133.3 -148.5 131 -162.3 117.9C-176.1 104.8 -178.5 81 -183.3 59.6C-188.1 38.1 -195.3 19.1 -202.5 0L0 0Z" fill="#ea6f8d"></path><path d="M0 135C-15.4 135.4 -30.8 135.8 -41.7 128.4C-52.6 121 -59.1 105.7 -70.7 97.3C-82.3 88.9 -99 87.3 -108.2 78.6C-117.4 69.9 -119 54 -122.2 39.7C-125.4 25.4 -130.2 12.7 -135 0L0 0Z" fill="#e8567e"></path><path d="M0 67.5C-7.7 67.7 -15.4 67.9 -20.9 64.2C-26.3 60.5 -29.5 52.8 -35.3 48.6C-41.1 44.4 -49.5 43.7 -54.1 39.3C-58.7 34.9 -59.5 27 -61.1 19.9C-62.7 12.7 -65.1 6.4 -67.5 0L0 0Z" fill="#e64777"></path></g><g transform="translate(0, 960)"><path d="M0 -540C59.8 -539.4 119.6 -538.7 166.9 -513.6C214.2 -488.4 249 -438.8 292.7 -402.9C336.5 -367 389.2 -344.7 419.9 -305.1C450.6 -265.4 459.2 -208.3 475.5 -154.5C491.9 -100.8 515.9 -50.4 540 0L0 0Z" fill="#e5d9db"></path><path d="M0 -472.5C52.3 -471.9 104.6 -471.4 146 -449.4C187.4 -427.4 217.8 -384 256.1 -352.5C294.4 -321.1 340.6 -301.6 367.4 -266.9C394.2 -232.2 401.8 -182.2 416.1 -135.2C430.4 -88.2 451.4 -44.1 472.5 0L0 0Z" fill="#e9c5cb"></path><path d="M0 -405C44.8 -404.5 89.7 -404 125.2 -385.2C160.6 -366.3 186.7 -329.1 219.5 -302.2C252.4 -275.2 291.9 -258.6 314.9 -228.8C337.9 -199 344.4 -156.2 356.6 -115.9C368.9 -75.6 387 -37.8 405 0L0 0Z" fill="#ebb0bb"></path><path d="M0 -337.5C37.4 -337.1 74.7 -336.7 104.3 -321C133.9 -305.3 155.6 -274.3 182.9 -251.8C210.3 -229.4 243.3 -215.5 262.4 -190.7C281.6 -165.9 287 -130.2 297.2 -96.6C307.4 -63 322.5 -31.5 337.5 0L0 0Z" fill="#ec9bab"></path><path d="M0 -270C29.9 -269.7 59.8 -269.4 83.4 -256.8C107.1 -244.2 124.5 -219.4 146.4 -201.4C168.2 -183.5 194.6 -172.4 209.9 -152.5C225.3 -132.7 229.6 -104.1 237.8 -77.3C245.9 -50.4 258 -25.2 270 0L0 0Z" fill="#ec869c"></path><path d="M0 -202.5C22.4 -202.3 44.8 -202 62.6 -192.6C80.3 -183.2 93.4 -164.6 109.8 -151.1C126.2 -137.6 146 -129.3 157.5 -114.4C169 -99.5 172.2 -78.1 178.3 -57.9C184.5 -37.8 193.5 -18.9 202.5 0L0 0Z" fill="#ea6f8d"></path><path d="M0 -135C14.9 -134.8 29.9 -134.7 41.7 -128.4C53.5 -122.1 62.2 -109.7 73.2 -100.7C84.1 -91.7 97.3 -86.2 105 -76.3C112.6 -66.3 114.8 -52.1 118.9 -38.6C123 -25.2 129 -12.6 135 0L0 0Z" fill="#e8567e"></path><path d="M0 -67.5C7.5 -67.4 14.9 -67.3 20.9 -64.2C26.8 -61.1 31.1 -54.9 36.6 -50.4C42.1 -45.9 48.7 -43.1 52.5 -38.1C56.3 -33.2 57.4 -26 59.4 -19.3C61.5 -12.6 64.5 -6.3 67.5 0L0 0Z" fill="#e64777"></path></g></svg>